# xmcd CD database file
#
# Track frame offsets:
#	183
#	29763
#	54733
#	68315
#	92158
#	119290
#	133738
#	149750
#	164543
#	191603
#	216448
#	229220
#	244473
#	254938
#	279833
#	294663
#
# Disc length: 4332 seconds
#
# Revision: 6
# Processed by: cddbd v1.5.2PL0 Copyright (c) Steve Scherf et al.
# Submitted via: CDex 1.51
#
DISCID=0c10ea10
DTITLE=Various Artist - Vol. 084 - Tribute to New Orleans
DYEAR=1950
DGENRE=Jazz
TTITLE0=Toot, Toot, Tootsie! - Kid Ory's Creole Jazz Band
TTITLE1=1919 Rag - Kid Ory's Creole Jazz Band
TTITLE2=Bill Bailey - Bob Scobey's Frisco Band
TTITLE3=Original Dixie one Step - Kid Ory's Creole Jazz Band
TTITLE4=Bourbon Streed Parade - Paul Barbarin and his Jazz Band
TTITLE5=Tres Moutarde - Wilbur De Paris and new New Orleans Band
TTITLE6=Just a Little While to Stay Here - Bunk's Brass Band with Bunk Jonhson, Georges Lewis and Baby Dodds
TTITLE7=At a  - Sidney Bechet, with Wilbur De Paris, "Wild Bill" Davidson, Ralph Sutton and Georges Wettling
TTITLE8=South Rampart Street Parade - Wilbur De Paris and his new New Orleans Band
TTITLE9=Careless Love - Kid Ory's Creole Jazz Band
TTITLE10=Jelly  - Sidney Bechet with "Wild Bill" Davidson, Wilbur De Paris, Ralph Sutton and Georges Wettling
TTITLE11=Down Home Rag - Kid Ory's Creole Jazz Band
TTITLE12=Sometimes my Burden is Hard to Bear - Georges Lewis and his Ragtime Band
TTITLE13=Beale Street Blues - Kid Ory's Creole Jazz Band
TTITLE14=Mardi Gras Parade - Bob Crosby and The Bob Cats
TTITLE15=New Orleans Function - Louis Armstrong and his All-Stars, with Jack Teagarden and Barney Bigard
EXTD=YEAR: 1950
EXTT0=
EXTT1=
EXTT2=
EXTT3=
EXTT4=
EXTT5=
EXTT6=
EXTT7=
EXTT8=
EXTT9=
EXTT10=
EXTT11=
EXTT12=
EXTT13=
EXTT14=
EXTT15=
PLAYORDER=
